<svg width="140" height="140" viewBox="0 0 140 140" fill="none" xmlns="http://www.w3.org/2000/svg">
<path d="M60.9583 75.6875L68.5417 83.2708C69.6111 84.3403 70.9722 84.875 72.625 84.875C74.2778 84.875 75.6389 84.3403 76.7083 83.2708L93.3333 66.6458V70.1458C93.3333 71.7986 93.8933 73.1597 95.0133 74.2292C96.1294 75.2986 97.5139 75.8333 99.1667 75.8333C100.819 75.8333 102.204 75.2733 103.32 74.1533C104.44 73.0372 105 71.6528 105 70V52.5C105 50.8472 104.44 49.4608 103.32 48.3408C102.204 47.2247 100.819 46.6667 99.1667 46.6667H81.5208C79.8681 46.6667 78.5069 47.2247 77.4375 48.3408C76.3681 49.4608 75.8333 50.8472 75.8333 52.5C75.8333 54.1528 76.3933 55.5372 77.5133 56.6533C78.6294 57.7733 80.0139 58.3333 81.6667 58.3333H85.0208L72.625 70.875L65.0417 63.2917C63.9722 62.125 62.6111 61.5417 60.9583 61.5417C59.3056 61.5417 57.9444 62.125 56.875 63.2917L39.0833 81.0833C37.9167 82.1528 37.3333 83.5139 37.3333 85.1667C37.3333 86.8195 37.9167 88.1806 39.0833 89.25C40.1528 90.4167 41.5139 91 43.1667 91C44.8194 91 46.1806 90.4167 47.25 89.25L60.9583 75.6875ZM29.1667 122.5C25.9583 122.5 23.2108 121.359 20.9242 119.076C18.6414 116.789 17.5 114.042 17.5 110.833V29.1667C17.5 25.9583 18.6414 23.2108 20.9242 20.9242C23.2108 18.6414 25.9583 17.5 29.1667 17.5H110.833C114.042 17.5 116.789 18.6414 119.076 20.9242C121.359 23.2108 122.5 25.9583 122.5 29.1667V110.833C122.5 114.042 121.359 116.789 119.076 119.076C116.789 121.359 114.042 122.5 110.833 122.5H29.1667Z" fill="#67A93F"/>
</svg>
