<svg width="148" height="148" viewBox="0 0 148 148" fill="none" xmlns="http://www.w3.org/2000/svg">
<path d="M37 117.167V123.333C37 125.081 36.4101 126.544 35.2302 127.724C34.0462 128.908 32.5806 129.5 30.8333 129.5H24.6667C22.9194 129.5 21.4559 128.908 20.276 127.724C19.092 126.544 18.5 125.081 18.5 123.333V74L31.45 37C32.0667 35.15 33.1726 33.6598 34.7677 32.5292C36.3587 31.3987 38.1306 30.8334 40.0833 30.8334H107.917C109.869 30.8334 111.643 31.3987 113.239 32.5292C114.83 33.6598 115.933 35.15 116.55 37L129.5 74V123.333C129.5 125.081 128.908 126.544 127.724 127.724C126.544 128.908 125.081 129.5 123.333 129.5H117.167C115.419 129.5 113.956 128.908 112.776 127.724C111.592 126.544 111 125.081 111 123.333V117.167H37ZM35.7667 61.6667H112.233L105.758 43.1667H42.2417L35.7667 61.6667ZM46.25 98.6667C48.8194 98.6667 51.0024 97.7664 52.799 95.9657C54.5997 94.1692 55.5 91.9861 55.5 89.4167C55.5 86.8473 54.5997 84.6643 52.799 82.8677C51.0024 81.067 48.8194 80.1667 46.25 80.1667C43.6806 80.1667 41.4976 81.067 39.701 82.8677C37.9003 84.6643 37 86.8473 37 89.4167C37 91.9861 37.9003 94.1692 39.701 95.9657C41.4976 97.7664 43.6806 98.6667 46.25 98.6667ZM101.75 98.6667C104.319 98.6667 106.502 97.7664 108.299 95.9657C110.1 94.1692 111 91.9861 111 89.4167C111 86.8473 110.1 84.6643 108.299 82.8677C106.502 81.067 104.319 80.1667 101.75 80.1667C99.1806 80.1667 96.9976 81.067 95.201 82.8677C93.4003 84.6643 92.5 86.8473 92.5 89.4167C92.5 91.9861 93.4003 94.1692 95.201 95.9657C96.9976 97.7664 99.1806 98.6667 101.75 98.6667Z" fill="#67A93F"/>
</svg>
