<svg width="121" height="122" viewBox="0 0 121 122" fill="none" xmlns="http://www.w3.org/2000/svg">
<path d="M60.5 61C63.2729 61 65.6475 60.0036 67.6239 58.011C69.5968 56.0217 70.5833 53.6291 70.5833 50.8333C70.5833 48.0375 69.5968 45.6432 67.6239 43.6505C65.6475 41.6613 63.2729 40.6666 60.5 40.6666C57.7271 40.6666 55.3541 41.6613 53.3812 43.6505C51.4048 45.6432 50.4167 48.0375 50.4167 50.8333C50.4167 53.6291 51.4048 56.0217 53.3812 58.011C55.3541 60.0036 57.7271 61 60.5 61ZM60.5 109.927C59.8278 109.927 59.1555 109.8 58.4833 109.546C57.8111 109.292 57.2229 108.953 56.7187 108.529C44.4507 97.6 35.2917 87.4553 29.2417 78.0952C23.1917 68.7317 20.1667 59.9833 20.1667 51.85C20.1667 39.1416 24.2218 29.0173 32.3322 21.477C40.4392 13.9368 49.8285 10.1666 60.5 10.1666C71.1715 10.1666 80.5608 13.9368 88.6678 21.477C96.7781 29.0173 100.833 39.1416 100.833 51.85C100.833 59.9833 97.8083 68.7317 91.7583 78.0952C85.7083 87.4553 76.5493 97.6 64.2812 108.529C63.7771 108.953 63.1889 109.292 62.5167 109.546C61.8444 109.8 61.1722 109.927 60.5 109.927Z" fill="#67A93F"/>
</svg>
